<svg xmlns="http://www.w3.org/2000/svg" xml:space="preserve" viewBox="0 0 512 512">
  <path d="m512 374-7-33v-1c-11-37-55-35-93-33l-23 1-32-12a8 8 0 0 0-14-7l-21-12a8 8 0 0 0-13-9h-1l-20-15a8 8 0 0 0-12-11l-19-18a8 8 0 0 0-10-12l-16-19a8 8 0 0 0-9-13l-16-23a8 8 0 0 0-8-14v1l-13-26a8 8 0 0 0-7-15l-5-10c-3-10-13-16-23-16H42c-9 0-16 7-16 16-1 30-4 68-8 108-4 54-9 114-9 169-6 3-9 8-9 14v26c0 14 11 25 25 25h328c54 0 114-22 140-31 13-5 21-17 19-30zm-117-50 18-1c37-2 63-2 73 15-37 14-68 22-91 26v-40zm92 65c-25 9-83 30-134 30H25c-5 0-9-4-9-9v-26h26a8 8 0 1 0 0-16H25c0-54 5-113 9-165 4-41 7-80 8-109v-1h67l9 21a8 8 0 0 0 14-7l-6-14h24c4 0 7 2 9 6l4 10-8 3a8 8 0 0 0 6 15l9-4c3 8 8 18 14 27l-8 4a8 8 0 1 0 7 14l9-4c4 8 10 15 15 23l-7 4a8 8 0 0 0 6 14l11-5 17 22-6 5a8 8 0 1 0 11 12l6-5 20 20-7 6a8 8 0 1 0 12 11l7-7 22 17-5 6a8 8 0 1 0 12 10l6-7 23 13-4 8a8 8 0 1 0 13 8l6-9 29 12v29a411 411 0 0 1-211-176 8 8 0 0 0-14 8c40 64 110 146 222 183l-23 2H76a8 8 0 1 0 0 16h277c51 0 109-20 138-31l5 24c1 7-7 11-9 12z"/>
  <path d="m152 147-8-14a8 8 0 0 0-14 7l8 15a8 8 0 1 0 14-8zm-41 50a59 59 0 1 0 0 118 59 59 0 0 0 0-118zm0 102a43 43 0 1 1 0-86 43 43 0 0 1 0 86z"/>
</svg>