<?xml version="1.0" encoding="iso-8859-1"?>
<!-- Generator: Adobe Illustrator 19.0.0, SVG Export Plug-In . SVG Version: 6.00 Build 0)  -->
<svg version="1.1" id="Layer_1" xmlns="http://www.w3.org/2000/svg" xmlns:xlink="http://www.w3.org/1999/xlink" x="0px" y="0px"
	 viewBox="0 0 496.182 496.182" style="enable-background:new 0 0 496.182 496.182;" xml:space="preserve">
<path style="fill:#49A0AE;" d="M248.093,0C111.074,0,0,111.063,0,248.091c0,137.012,111.074,248.091,248.094,248.091
	c137.012,0,248.088-111.079,248.088-248.091C496.181,111.063,385.105,0,248.093,0z"/>
<path style="fill:#EFEDE6;" d="M248.504,177.165l-170.996,6.067l2.588,72.35c0,0,46.816,6.883,91.184,45.149
	c44.369,38.267,42.984,81.458,42.984,81.458s26.723,1.961,34.074,1.961c7.354,0,33.465-1.961,33.465-1.961
	s7.23-50.244,42.822-81.337c35.59-31.093,91.059-45.097,91.059-45.097l2.875-72.523L248.504,177.165z"/>
<g>
	<path style="fill:#DDDBD9;" d="M248.504,177.165c-80.756,0-170.996,6.067-170.996,6.067l0.699,27.982
		c0,0,95.025-6.041,170.297-6.041c75.27,0,169.279,6.039,169.279,6.039l0.775-27.98
		C418.558,183.233,329.259,177.165,248.504,177.165z"/>
	<path style="fill:#DDDBD9;" d="M203.859,204.26c-23.008,74.508-11.58,119.533-11.58,119.533
		c1.066-64.146,20.111-118.924,20.111-118.924L203.859,204.26z"/>
	<path style="fill:#DDDBD9;" d="M293.508,204.26l-8.533,0.609c0,0,19.047,54.777,20.113,118.924
		C305.088,323.793,316.515,278.768,293.508,204.26z"/>
</g>
<g>
</g>
<g>
</g>
<g>
</g>
<g>
</g>
<g>
</g>
<g>
</g>
<g>
</g>
<g>
</g>
<g>
</g>
<g>
</g>
<g>
</g>
<g>
</g>
<g>
</g>
<g>
</g>
<g>
</g>
</svg>
