<?xml version="1.0" encoding="iso-8859-1"?>
<!-- Generator: Adobe Illustrator 19.1.0, SVG Export Plug-In . SVG Version: 6.00 Build 0)  -->
<svg version="1.1" id="Capa_1" xmlns="http://www.w3.org/2000/svg" xmlns:xlink="http://www.w3.org/1999/xlink" x="0px" y="0px"
	 viewBox="0 0 357.044 357.044" style="enable-background:new 0 0 357.044 357.044;" xml:space="preserve">
<g>
	<rect x="164.975" y="44.588" style="fill:#FFFFFF;" width="6.74" height="6.284"/>
	<path style="fill:#FFFFFF;" d="M221.205,23.824c6.11-0.765,11.891-1.193,16.236-1.426v-1.533
		c-4.895-2.43-54.759-7.937-79.414-5.746v14.469h10v-7.469C181.931,20.883,203.853,22.096,221.205,23.824z"/>
	<path style="fill:#FFFFFF;" d="M193.958,71.872l-0.609-6h-39.52l-3.165,31.175c3.155-0.527,6.41-0.941,9.735-1.249l2.43-23.927
		H193.958z"/>
	<polygon style="fill:#FFFFFF;" points="201.969,166.73 201.969,160.833 145.208,160.833 145.208,265.22 154.054,265.22 
		154.054,166.73 	"/>
	<path style="fill:#FFFFFF;" d="M125.501,334.904v-202.84c0-0.669,4.324-19.768,53.985-19.768c13.122,0,23.179,1.664,30.865,4.021
		c-8.189-3.415-19.984-6.127-36.763-6.127c-49.661,0-53.985,19.099-53.985,19.768v202.84c0,5.099,4.147,9.247,9.246,9.247h0.029
		C126.818,340.347,125.501,337.776,125.501,334.904z"/>
	<path style="fill:#FFE09C;" d="M125.501,132.064v202.84c0,2.873,1.317,5.443,3.378,7.14h89.448c5.099,0,9.247-4.148,9.247-9.247
		v-202.84c0-0.417-3.676-7.992-17.225-13.642c-7.687-2.357-17.742-4.02-30.863-4.02
		C129.825,112.295,125.501,131.394,125.501,132.064z M216.969,153.333V272.72c0,4.142-3.357,7.5-7.5,7.5h-71.762
		c-4.142,0-7.5-3.358-7.5-7.5V153.333c0-4.142,3.358-7.5,7.5-7.5h71.762C213.612,145.833,216.969,149.191,216.969,153.333z"/>
	<path style="fill:none;" d="M119.603,129.957v202.84c0,5.099,4.147,9.247,9.246,9.247h0.029h89.448
		c5.099,0,9.247-4.148,9.247-9.247v-202.84c0-0.417-3.676-7.992-17.225-13.642c-8.189-3.415-19.984-6.127-36.761-6.127
		C123.927,110.189,119.603,129.288,119.603,129.957z"/>
	<path style="fill:#FFE09C;" d="M160.399,95.799c4.287-0.396,8.694-0.61,13.189-0.61c7.982,0,15.703,0.652,22.925,1.858
		l-2.556-25.175h-31.129L160.399,95.799z"/>
	<path style="fill:none;" d="M173.588,95.189c7.982,0,15.703,0.652,22.925,1.858l-2.556-25.175l-0.609-6h-39.52l-3.165,31.175
		c3.154-0.527,6.41-0.941,9.735-1.249C164.686,95.403,169.093,95.189,173.588,95.189z"/>
	<path style="fill:none;" d="M119.603,129.957v202.84c0,5.099,4.147,9.247,9.246,9.247h0.029h89.448
		c5.099,0,9.247-4.148,9.247-9.247v-202.84c0-0.417-3.676-7.992-17.225-13.642c-8.189-3.415-19.984-6.127-36.761-6.127
		C123.927,110.189,119.603,129.288,119.603,129.957z"/>
	<path style="fill:#FFA5A5;" d="M168.027,22.119v7.469h28.258c6.889-2.905,16.239-4.677,24.92-5.764l0,0
		C203.853,22.096,181.931,20.883,168.027,22.119z"/>
	<path style="fill:none;" d="M173.588,95.189c7.982,0,15.703,0.652,22.925,1.858l-2.556-25.175l-0.609-6h-39.52l-3.165,31.175
		c3.154-0.527,6.41-0.941,9.735-1.249C164.686,95.403,169.093,95.189,173.588,95.189z"/>
	<path style="fill:none;" d="M119.603,129.957v202.84c0,5.099,4.147,9.247,9.246,9.247h0.029h89.448
		c5.099,0,9.247-4.148,9.247-9.247v-202.84c0-0.417-3.676-7.992-17.225-13.642c-8.189-3.415-19.984-6.127-36.761-6.127
		C123.927,110.189,119.603,129.288,119.603,129.957z"/>
	<path style="fill:none;" d="M158.027,15.119v14.469h10h28.258c6.889-2.905,16.239-4.677,24.92-5.764
		c6.11-0.765,11.891-1.193,16.236-1.426v-1.533C232.546,18.435,182.682,12.928,158.027,15.119z"/>
	<rect x="171.715" y="44.588" style="fill:#FFA5A5;" width="10.486" height="6.284"/>
	<path style="fill:#D15252;" d="M219.539,2.013C204.066,0.349,184.962,0,171.66,0c-12.267,0-21.014,0.284-21.38,0.295
		c-4.044,0.133-7.253,3.45-7.253,7.496v29.297c0,3.956,3.064,7.189,6.948,7.472v6.312h-2.924c-3.849,0-7.072,2.914-7.461,6.743
		l-4.38,43.136c-7.59,2.45-14.163,5.636-19.223,9.466c-4.464,2.801-7.928,7.022-9.796,11.944c-1.055,2.555-1.589,5.177-1.589,7.796
		v202.84c0,13.37,10.877,24.247,24.246,24.247h89.478c13.37,0,24.247-10.877,24.247-24.247v-202.84c0-2.618-0.534-5.24-1.589-7.796
		c-1.868-4.922-5.333-9.143-9.797-11.944c-5.06-3.829-11.633-7.016-19.222-9.465l-4.38-43.136c-0.389-3.829-3.612-6.743-7.461-6.743
		h-2.924v-6.284c0,0,2.908-0.251,3.919-0.734c10.643-5.09,35.332-6.587,43.947-6.734c4.091-0.07,7.373-3.407,7.373-7.499V18.771
		C252.441,7.153,236.628,3.851,219.539,2.013z M153.829,65.872h39.52l0.609,6l2.556,25.175c-7.222-1.207-14.942-1.858-22.925-1.858
		c-4.495,0-8.902,0.214-13.189,0.61c-3.325,0.307-6.581,0.721-9.735,1.249L153.829,65.872z M182.202,50.872h-10.486h-6.74v-6.284
		h6.74h10.486V50.872z M210.349,116.316c13.549,5.649,17.225,13.225,17.225,13.642v202.84c0,5.099-4.148,9.247-9.247,9.247h-89.448
		h-0.029c-5.099,0-9.246-4.148-9.246-9.247v-202.84c0-0.669,4.324-19.768,53.985-19.768
		C190.365,110.189,202.16,112.9,210.349,116.316z M237.441,22.398c-4.346,0.233-10.126,0.661-16.236,1.426
		c-8.681,1.087-18.031,2.859-24.92,5.764h-28.258h-10V15.119c24.655-2.191,74.52,3.315,79.414,5.746V22.398z"/>
	<rect x="154.054" y="166.73" style="fill:#FFA5A5;" width="47.915" height="98.489"/>
	<path style="fill:#D15252;" d="M209.469,145.833h-71.762c-4.142,0-7.5,3.358-7.5,7.5V272.72c0,4.142,3.358,7.5,7.5,7.5h71.762
		c4.143,0,7.5-3.358,7.5-7.5V153.333C216.969,149.191,213.612,145.833,209.469,145.833z M145.208,160.833h56.762v5.898v98.489
		h-47.915h-8.847V160.833z"/>
</g>
<g>
</g>
<g>
</g>
<g>
</g>
<g>
</g>
<g>
</g>
<g>
</g>
<g>
</g>
<g>
</g>
<g>
</g>
<g>
</g>
<g>
</g>
<g>
</g>
<g>
</g>
<g>
</g>
<g>
</g>
</svg>
