<svg xmlns="http://www.w3.org/2000/svg" xml:space="preserve" viewBox="0 0 512 512">
  <circle cx="319.1" cy="98.8" r="8.4"/>
  <circle cx="344.2" cy="175.6" r="8.4"/>
  <circle cx="70.2" cy="211.5" r="8.4"/>
  <circle cx="63.7" cy="292.8" r="9.8"/>
  <circle cx="150.1" cy="253.6" r="9.8"/>
  <path d="M458 426c0-7-3-13-7-17a25 25 0 0 0-2-34 25 25 0 0 0-8-38 25 25 0 0 0-20-34c0-14-11-25-24-25a25 25 0 0 0-28-24 25 25 0 0 0-31-18 25 25 0 0 0-29-16 25 25 0 0 0-32-15c-3-6-7-11-13-13a25 25 0 0 0-1-24 25 25 0 0 0 8-32 25 25 0 0 0 6-35 25 25 0 0 0 0-38c3-4 4-9 4-14a25 25 0 0 0-29-25 25 25 0 0 0-37-14 25 25 0 0 0-40 0c-4-3-8-4-13-4-12 0-22 8-24 20a25 25 0 0 0-28 27 25 25 0 0 0-19 33 25 25 0 0 0-4 42c-2 4-4 9-4 14 0 12 10 22 21 24v2a25 25 0 0 0 34 23 25 25 0 0 0 31 13 25 25 0 0 0 33 11c2 5 6 8 11 11a25 25 0 0 0-7 33 25 25 0 0 0-5 34 25 25 0 0 0-1 37 25 25 0 0 0 3 34 25 25 0 0 0 7 36l-2 11c0 11 7 20 16 23a25 25 0 0 0 24 31 25 25 0 0 0 31 23 25 25 0 0 0 36 13 25 25 0 0 0 38 3 25 25 0 0 0 33-2c5 4 10 6 16 6 13 0 24-11 25-24a25 25 0 0 0 20-37c7-5 11-12 11-21zm-18-33a8 8 0 1 1-17 0 8 8 0 0 1 17 0zm-3-34a8 8 0 1 1-16 0 8 8 0 0 1 16 0zm-20-39a8 8 0 1 1 0 16 8 8 0 0 1 0-16zm-21-26a8 8 0 1 1 0 17 8 8 0 0 1 0-17zm-24-23a8 8 0 1 1 0 17 8 8 0 0 1 0-17zm-28-19a8 8 0 1 1 0 17 8 8 0 0 1 0-17zm-37-11zm-22-21a8 8 0 0 1 8 12v1a8 8 0 1 1-8-13zm-28-96-2-1a8 8 0 1 1 2 1zm2 84a8 8 0 0 1-1 15 25 25 0 0 0 1-15zm11-126a8 8 0 1 1-10-8h1c5 0 9 3 9 8zm-14-41a8 8 0 0 1 1 16h-1a8 8 0 0 1 0-16zm-7 98 1 1h1a8 8 0 1 1-2-1zm-21 115a8 8 0 1 1 0-17 8 8 0 0 1 0 17zm2 25a8 8 0 0 1-9 8h-1a8 8 0 1 1 10-8zm5-58a8 8 0 1 1 1-16h1a8 8 0 0 1-2 16zm7-32h-2l-1-1a8 8 0 0 1 4-16h1a8 8 0 0 1-2 17zM220 30v-1a8 8 0 1 1 0 1zm-25-13a8 8 0 0 1 8 9v1a8 8 0 0 1-16 0 8 8 0 0 1 8-10zm-33 6c4 0 7 3 8 6v1a8 8 0 1 1-16 1c0-4 3-8 8-8zm-27 19a8 8 0 1 1 0 17 8 8 0 0 1 0-17zm-40 67a8 8 0 0 1 10-8h2a8 8 0 1 1-12 8zm14 41a8 8 0 1 1 0-17 8 8 0 0 1 0 17zm6-64-2-1h-2a8 8 0 1 1 4 1zm15 90a8 8 0 1 1 0-17 8 8 0 0 1 0 17zm39 7-1 1a8 8 0 1 1 1-1zm23 18a8 8 0 0 1-8-11v-1a8 8 0 1 1 8 12zm0-34-9 2a25 25 0 0 0-31-12c-3-7-10-13-18-14v-1c0-8-4-15-10-20a25 25 0 0 0 2-22 25 25 0 0 0 14-25c9-2 17-9 19-19a25 25 0 0 0 23-9 25 25 0 0 0 26-1 25 25 0 0 0 24 10c1 5 4 9 8 12a25 25 0 0 0 0 28 25 25 0 0 0-5 31 25 25 0 0 0-8 33c-6 4-10 11-11 19l-2 1c-5-8-13-13-22-13zm17 145a8 8 0 0 1 9-8 8 8 0 1 1-9 8zm3 33a8 8 0 1 1 17 0 8 8 0 0 1-17 0zm11 42a8 8 0 1 1 0-17 8 8 0 0 1 0 17zm10 32a8 8 0 1 1 0-17 8 8 0 0 1 0 17zm16 30a8 8 0 1 1 0-17 8 8 0 0 1 0 17zm24 23a8 8 0 1 1 0-17 8 8 0 0 1 0 17zm29 16a8 8 0 1 1 0-17 8 8 0 0 1 0 17zm33 7a8 8 0 1 1 0-16 8 8 0 0 1 0 16zm33-2a8 8 0 1 1 0-17 8 8 0 0 1 0 17zm34-2a8 8 0 1 1 5-15l1 1a8 8 0 0 1-6 14zm9-53c-6 5-10 12-11 20-6 0-12 3-16 7a25 25 0 0 0-34 2 25 25 0 0 0-27-2 25 25 0 0 0-26-10c-4-9-13-16-23-17-1-10-7-18-17-21a25 25 0 0 0-11-28 25 25 0 0 0-5-29 25 25 0 0 0-3-33 25 25 0 0 0 0-30 25 25 0 0 0 5-31 25 25 0 0 0 9-26 25 25 0 0 0 11-1 25 25 0 0 0 28 14 25 25 0 0 0 30 16 25 25 0 0 0 26 16c3 11 12 19 24 19 0 12 10 22 21 24 0 10 6 18 14 22a25 25 0 0 0 6 28 25 25 0 0 0 2 32 25 25 0 0 0-3 28zm14 29c-2 0-4 0-5-2l-1-1-2-5a8 8 0 1 1 8 8zm8-32a8 8 0 1 1 0-17 8 8 0 0 1 0 17z"/>
</svg>