<?xml version="1.0" encoding="iso-8859-1"?>
<!-- Generator: Adobe Illustrator 19.0.0, SVG Export Plug-In . SVG Version: 6.00 Build 0)  -->
<svg version="1.1" id="Layer_1" xmlns="http://www.w3.org/2000/svg" xmlns:xlink="http://www.w3.org/1999/xlink" x="0px" y="0px"
	 viewBox="0 0 512.001 512.001" style="enable-background:new 0 0 512.001 512.001;" xml:space="preserve">
<g>
	<g>
		<circle cx="319.088" cy="98.802" r="8.366"/>
	</g>
</g>
<g>
	<g>
		<circle cx="344.199" cy="175.573" r="8.366"/>
	</g>
</g>
<g>
	<g>
		<circle cx="70.168" cy="211.537" r="8.366"/>
	</g>
</g>
<g>
	<g>
		<circle cx="63.711" cy="292.792" r="9.793"/>
	</g>
</g>
<g>
	<g>
		<circle cx="150.063" cy="253.626" r="9.793"/>
	</g>
</g>
<g>
	<g>
		<path d="M458.084,426.247c0-6.748-2.682-12.877-7.029-17.392c3.632-4.354,5.822-9.952,5.822-16.051
			c0-7.162-3.02-13.627-7.848-18.204c3.199-4.213,5.104-9.462,5.104-15.148c0-9.634-5.459-18.012-13.443-22.218
			c1.112-2.835,1.73-5.915,1.73-9.138c0-12.707-9.495-23.232-21.762-24.871c0.003-0.183,0.013-0.366,0.013-0.55
			c0-13.473-10.672-24.497-24.006-25.071c-0.875-13.052-11.767-23.406-25.036-23.406c-1.022,0-2.026,0.068-3.016,0.187
			c-2.616-11.064-12.57-19.324-24.421-19.324c-2.227,0-4.385,0.296-6.442,0.842c-3.652-9.353-12.754-15.999-23.384-15.999
			c-1.753,0-3.463,0.182-5.115,0.525c-3.301-10.011-12.737-17.258-23.838-17.258c-2.878,0-5.642,0.493-8.219,1.389
			c-2.722-5.697-7.532-10.208-13.432-12.551c1.824-3.477,2.862-7.428,2.862-11.62c0-4.436-1.161-8.604-3.189-12.224
			c6.364-4.557,10.524-12.006,10.524-20.413c0-4.296-1.087-8.342-2.996-11.88c6.546-4.535,10.845-12.095,10.845-20.643
			c0-5.206-1.594-10.046-4.319-14.061c5.406-4.607,8.844-11.459,8.844-19.101c0-7.831-3.607-14.833-9.243-19.44
			c2.543-3.924,4.027-8.595,4.027-13.609c0-13.839-11.26-25.099-25.099-25.099c-1.355,0-2.685,0.112-3.982,0.319
			c-2.947-10.585-12.667-18.378-24.178-18.378c-4.839,0-9.36,1.381-13.198,3.763C210.059,3.769,202.924,0,194.921,0
			c-8.047,0-15.217,3.812-19.814,9.72c-3.815-2.343-8.3-3.697-13.095-3.697c-11.924,0-21.926,8.361-24.468,19.526
			c-0.914-0.102-1.841-0.157-2.781-0.157c-13.839,0-25.099,11.26-25.099,25.099c0,0.794,0.041,1.577,0.114,2.353
			c-11.388,2.374-19.972,12.488-19.972,24.571c0,3.157,0.592,6.178,1.661,8.963c-8.028,4.192-13.525,12.593-13.525,22.259
			c0,7.91,3.682,14.974,9.417,19.577c-2.478,3.89-3.919,8.499-3.919,13.442c0,12.463,9.133,22.829,21.056,24.769
			c-0.021,0.423-0.032,0.848-0.032,1.275c0,13.839,11.26,25.099,25.099,25.099c2.925,0,5.732-0.508,8.344-1.431
			c4.067,8.388,12.668,14.186,22.599,14.186c3.162,0,6.189-0.593,8.979-1.667c4.192,8.025,12.593,13.519,22.257,13.519
			c3.565,0,6.956-0.752,10.031-2.098c2.529,4.401,6.347,8.022,11.033,10.242c-6.259,4.568-10.336,11.956-10.336,20.28
			c0,4.742,1.323,9.18,3.617,12.967c-5.981,4.591-9.848,11.809-9.848,19.915c0,5.388,1.712,10.38,4.613,14.474
			c-5.182,4.602-8.455,11.306-8.455,18.763c0,7.227,3.074,13.747,7.979,18.33c-3.131,4.188-4.989,9.382-4.989,15.002
			c0,7.222,3.071,13.738,7.97,18.321c-3.134,4.189-4.991,9.384-4.991,15.005c0,9.036,4.801,16.969,11.985,21.39
			c-1.542,3.252-2.408,6.884-2.408,10.715c0,10.837,6.905,20.091,16.545,23.597c-0.456,1.89-0.705,3.861-0.705,5.889
			c0,13.535,10.772,24.596,24.191,25.076c0.966,12.964,11.816,23.219,25.021,23.219c1.959,0,3.864-0.233,5.695-0.659
			c3.451,9.741,12.754,16.74,23.663,16.74c4.416,0,8.568-1.151,12.177-3.163c4.554,6.402,12.024,10.59,20.461,10.59
			c7.029,0,13.389-2.908,17.949-7.58c4.264,3.34,9.625,5.339,15.448,5.339c6.993,0,13.324-2.877,17.88-7.506
			c4.285,3.406,9.701,5.448,15.586,5.448c13.41,0,24.398-10.572,25.067-23.819c13.09-0.836,23.486-11.745,23.486-25.041
			c0-4.352-1.114-8.448-3.071-12.019C453.827,442.277,458.084,434.753,458.084,426.247z M440.144,392.804
			c0,4.614-3.753,8.366-8.366,8.366c-4.614,0-8.366-3.753-8.366-8.366s3.753-8.366,8.366-8.366
			C436.391,384.437,440.144,388.19,440.144,392.804z M437.4,359.452c0,4.614-3.753,8.366-8.366,8.366
			c-4.614,0-8.366-3.754-8.366-8.366c0-4.614,3.753-8.366,8.366-8.366C433.647,351.085,437.4,354.838,437.4,359.452z
			 M417.32,319.728c4.614,0,8.366,3.753,8.366,8.366s-3.753,8.366-8.366,8.366c-4.614,0-8.366-3.753-8.366-8.366
			S412.706,319.728,417.32,319.728z M395.573,294.307c4.614,0,8.366,3.753,8.366,8.366c0,4.614-3.753,8.368-8.366,8.368
			c-4.614,0-8.366-3.754-8.366-8.368S390.959,294.307,395.573,294.307z M371.63,270.929c4.614,0,8.366,3.753,8.366,8.366
			s-3.753,8.366-8.366,8.366c-4.614,0-8.366-3.753-8.366-8.366S367.017,270.929,371.63,270.929z M344.193,251.792
			c4.614,0,8.366,3.753,8.366,8.366s-3.753,8.366-8.366,8.366c-4.614,0-8.366-3.753-8.366-8.366S339.579,251.792,344.193,251.792z
			 M306.955,241.136c0.09-0.151,0.175-0.303,0.262-0.456c1.468-2.418,4.119-4.044,7.149-4.044c4.614,0,8.368,3.753,8.368,8.366
			s-3.753,8.366-8.366,8.366c-4.614,0-8.366-3.753-8.366-8.366C306.001,243.606,306.349,242.294,306.955,241.136z M285.416,219.903
			c4.614,0,8.365,3.753,8.365,8.366c0,1.396-0.348,2.708-0.954,3.866c-0.09,0.151-0.175,0.303-0.262,0.456
			c-1.468,2.418-4.119,4.044-7.149,4.044c-4.614,0-8.366-3.753-8.366-8.366S280.802,219.903,285.416,219.903z M256.709,123.594
			c-0.56,0-1.108-0.058-1.638-0.163c-0.061-0.016-0.125-0.028-0.187-0.044c-3.738-0.836-6.543-4.173-6.543-8.16
			c0-4.614,3.753-8.366,8.366-8.366c4.614,0,8.366,3.753,8.366,8.366C265.074,119.841,261.323,123.594,256.709,123.594z
			 M259.292,208.47c2.177,1.512,3.609,4.027,3.609,6.873c0,3.511-2.175,6.518-5.247,7.757c1.333-3.062,2.077-6.438,2.077-9.984
			C259.731,211.528,259.576,209.977,259.292,208.47z M269.599,82.065c0,4.614-3.753,8.366-8.366,8.366
			c-4.614,0-8.366-3.753-8.366-8.366c0-4.125,3.004-7.554,6.937-8.235c0.02-0.003,0.039-0.006,0.058-0.009
			c0.447-0.075,0.904-0.123,1.371-0.123C265.846,73.698,269.599,77.451,269.599,82.065z M256.017,40.649
			c4.614,0,8.365,3.754,8.365,8.366c0,4.125-3.004,7.555-6.937,8.236c-0.019,0.003-0.038,0.006-0.057,0.009
			c-0.447,0.075-0.904,0.123-1.371,0.123c-4.614,0-8.366-3.754-8.366-8.368S251.404,40.649,256.017,40.649z M248.861,139.383
			c0.56,0,1.108,0.058,1.638,0.163c0.06,0.018,0.124,0.029,0.185,0.045c3.738,0.836,6.543,4.173,6.543,8.16
			c0,4.614-3.753,8.366-8.366,8.366c-0.539,0-1.064-0.056-1.575-0.154c-0.144-0.035-0.288-0.069-0.432-0.1
			c-3.646-0.902-6.359-4.192-6.359-8.113C240.495,143.135,244.247,139.383,248.861,139.383z M227.568,254.196
			c-4.614,0-8.366-3.753-8.366-8.366s3.753-8.366,8.366-8.366c4.614,0,8.366,3.753,8.366,8.366S232.182,254.196,227.568,254.196z
			 M229.703,278.712c0,4.614-3.753,8.366-8.366,8.366c-0.281,0-0.559-0.015-0.834-0.042c-0.027-0.003-0.054-0.008-0.08-0.01
			c-4.184-0.457-7.452-4.01-7.452-8.314c0-4.614,3.753-8.366,8.366-8.366S229.703,274.098,229.703,278.712z M234.632,221.482
			c-4.614,0-8.366-3.753-8.366-8.366s3.753-8.366,8.366-8.366c0.485,0,0.957,0.05,1.419,0.129c0.211,0.047,0.422,0.094,0.635,0.136
			c3.622,0.919,6.313,4.197,6.313,8.101C242.998,217.73,239.245,221.482,234.632,221.482z M241.527,188.755
			c-0.485,0-0.957-0.05-1.419-0.129c-0.211-0.047-0.422-0.094-0.635-0.136c-3.622-0.919-6.313-4.197-6.313-8.101
			c0-4.614,3.753-8.366,8.366-8.366c0.539,0,1.064,0.056,1.575,0.154c0.144,0.033,0.288,0.068,0.433,0.099
			c3.646,0.902,6.359,4.192,6.359,8.113C249.893,185.002,246.14,188.755,241.527,188.755z M219.613,29.575
			c0.023-0.134,0.05-0.268,0.071-0.402c0.821-3.759,4.17-6.583,8.171-6.583c4.614,0,8.366,3.753,8.366,8.366
			s-3.753,8.366-8.366,8.366s-8.366-3.753-8.366-8.366C219.489,30.485,219.538,30.026,219.613,29.575z M194.921,16.733
			c4.614,0,8.366,3.753,8.366,8.366c0,0.473-0.049,0.933-0.125,1.384c-0.023,0.133-0.049,0.266-0.071,0.399
			c-0.82,3.759-4.17,6.584-8.17,6.584c-4.021,0-7.387-2.852-8.185-6.64c-0.01-0.058-0.021-0.116-0.031-0.174
			c-0.095-0.504-0.151-1.022-0.151-1.554C186.555,20.486,190.308,16.733,194.921,16.733z M162.012,22.755
			c4.02,0,7.386,2.851,8.185,6.638c0.01,0.059,0.021,0.118,0.031,0.177c0.095,0.503,0.151,1.021,0.151,1.552
			c0,4.614-3.753,8.366-8.366,8.366c-2.676,0-5.056-1.267-6.588-3.228c-0.146-0.211-0.295-0.421-0.446-0.628
			c-0.839-1.303-1.331-2.849-1.331-4.511C153.645,26.508,157.399,22.755,162.012,22.755z M134.764,42.123
			c2.676,0,5.056,1.267,6.588,3.228c0.146,0.211,0.294,0.421,0.446,0.628c0.839,1.303,1.331,2.849,1.331,4.511
			c0,4.614-3.753,8.366-8.366,8.366s-8.366-3.753-8.366-8.366S130.15,42.123,134.764,42.123z M94.675,108.636
			c0-4.614,3.753-8.366,8.366-8.366c0.756,0.001,1.485,0.11,2.182,0.299c0.495,0.208,1,0.395,1.51,0.571
			c2.764,1.368,4.674,4.209,4.674,7.496c0,4.614-3.753,8.368-8.366,8.368C98.428,117.003,94.675,113.249,94.675,108.636z
			 M108.54,150.022c-4.614,0-8.366-3.753-8.366-8.366s3.753-8.366,8.366-8.366s8.366,3.753,8.366,8.366
			S113.154,150.022,108.54,150.022z M114.905,85.78c-0.755,0-1.485-0.109-2.182-0.299c-0.495-0.208-1-0.395-1.51-0.571
			c-2.764-1.368-4.674-4.209-4.674-7.496c0-4.613,3.753-8.366,8.366-8.366s8.366,3.753,8.366,8.366S119.519,85.78,114.905,85.78z
			 M129.563,176.066c-4.614,0-8.366-3.753-8.366-8.366s3.753-8.366,8.366-8.366s8.366,3.753,8.366,8.366
			S134.177,176.066,129.563,176.066z M168.559,182.7c-0.189,0.453-0.361,0.915-0.523,1.381c-1.355,2.799-4.216,4.74-7.529,4.74
			c-4.614,0-8.366-3.753-8.366-8.366s3.753-8.366,8.366-8.366s8.366,3.753,8.366,8.366
			C168.873,181.233,168.759,181.984,168.559,182.7z M191.743,200.673c-4.614,0-8.366-3.753-8.366-8.366
			c0-0.779,0.115-1.529,0.315-2.246c0.189-0.453,0.361-0.915,0.523-1.381c1.354-2.8,4.216-4.74,7.529-4.74
			c4.614,0,8.366,3.753,8.366,8.366S196.357,200.673,191.743,200.673z M191.743,167.207c-3.163,0-6.189,0.594-8.979,1.667
			c-4.192-8.025-12.593-13.519-22.257-13.519c-2.925,0-5.732,0.508-8.344,1.431c-3.503-7.225-10.372-12.524-18.556-13.856
			c0.021-0.423,0.032-0.848,0.032-1.275c0-7.91-3.682-14.973-9.417-19.576c2.478-3.89,3.92-8.499,3.92-13.443
			c0-3.157-0.592-6.178-1.661-8.963c8.028-4.192,13.525-12.593,13.525-22.259c0-0.794-0.041-1.577-0.114-2.353
			c9.583-1.997,17.172-9.477,19.341-18.997c0.914,0.102,1.841,0.157,2.781,0.157c8.047,0,15.217-3.812,19.813-9.719
			c3.815,2.344,8.299,3.698,13.096,3.698c4.839,0,9.361-1.381,13.199-3.764c4.599,5.851,11.733,9.62,19.736,9.62
			c1.355,0,2.685-0.112,3.982-0.319c1.408,5.06,4.361,9.482,8.322,12.719c-2.543,3.924-4.027,8.595-4.027,13.609
			c0,5.206,1.594,10.046,4.319,14.061c-5.406,4.607-8.844,11.459-8.844,19.101c0,4.296,1.087,8.342,2.996,11.88
			c-6.546,4.535-10.845,12.095-10.845,20.643c0,4.436,1.161,8.604,3.189,12.224c-5.949,4.26-9.966,11.048-10.465,18.783
			c-1.02,0.298-2.013,0.657-2.975,1.078C209.175,172.298,201.044,167.207,191.743,167.207z M209.131,311.949
			c0-4.614,3.752-8.366,8.365-8.366c0.281,0,0.559,0.015,0.834,0.042c0.027,0.003,0.055,0.008,0.081,0.01
			c4.184,0.457,7.452,4.01,7.452,8.314c0,4.614-3.753,8.366-8.366,8.366S209.131,316.563,209.131,311.949z M212.12,345.28
			c0-4.614,3.753-8.366,8.366-8.366s8.366,3.754,8.366,8.366c0,4.614-3.753,8.366-8.366,8.366S212.12,349.894,212.12,345.28z
			 M223.466,386.973c-4.614,0-8.366-3.753-8.366-8.366c0-4.614,3.753-8.366,8.366-8.366c4.614,0,8.366,3.754,8.366,8.366
			C231.833,383.22,228.08,386.973,223.466,386.973z M233.043,419.079c-4.614,0-8.366-3.753-8.366-8.366
			c0-4.614,3.754-8.366,8.366-8.366c4.614,0,8.366,3.753,8.366,8.366C241.409,415.326,237.657,419.079,233.043,419.079z
			 M248.883,448.563c-4.614,0-8.366-3.753-8.366-8.366c0-4.614,3.753-8.366,8.366-8.366c4.614,0,8.366,3.753,8.366,8.366
			C257.25,444.811,253.497,448.563,248.883,448.563z M272.998,471.758c-4.614,0-8.366-3.753-8.366-8.366
			c0-4.614,3.753-8.366,8.366-8.366s8.366,3.753,8.366,8.366C281.364,468.006,277.612,471.758,272.998,471.758z M302.355,487.839
			c-4.614,0-8.366-3.753-8.366-8.366c0-4.614,3.753-8.366,8.366-8.366c4.614,0,8.366,3.753,8.366,8.366
			C310.722,484.086,306.969,487.839,302.355,487.839z M334.993,495.267c-4.614,0-8.366-3.753-8.366-8.366s3.753-8.366,8.366-8.366
			c4.614,0,8.366,3.753,8.366,8.366S339.607,495.267,334.993,495.267z M368.39,493.026c-4.614,0-8.366-3.753-8.366-8.366
			c0-4.614,3.753-8.366,8.366-8.366c4.614,0,8.366,3.753,8.366,8.366C376.756,489.273,373.004,493.026,368.39,493.026z
			 M401.856,490.967c-4.614,0-8.366-3.753-8.366-8.366c0-4.614,3.753-8.366,8.366-8.366c1.992,0,3.823,0.703,5.261,1.87
			c0.387,0.407,0.785,0.804,1.198,1.186c1.19,1.446,1.906,3.296,1.906,5.311C410.222,487.214,406.469,490.967,401.856,490.967z
			 M410.959,438.264c-6.162,4.313-10.311,11.315-10.714,19.292c-6.353,0.408-12.067,3.182-16.27,7.452
			c-4.285-3.406-9.701-5.448-15.586-5.448c-7.029,0-13.389,2.908-17.949,7.58c-4.264-3.34-9.625-5.339-15.448-5.339
			c-4.416,0-8.568,1.151-12.177,3.162c-4.554-6.402-12.024-10.59-20.461-10.59c-1.959,0-3.864,0.233-5.695,0.659
			c-3.356-9.47-12.24-16.34-22.755-16.717c-0.746-10.016-7.39-18.414-16.467-21.716c0.456-1.89,0.705-3.861,0.705-5.889
			c0-9.036-4.801-16.969-11.985-21.39c1.542-3.252,2.408-6.884,2.408-10.715c0-7.222-3.071-13.738-7.97-18.321
			c3.134-4.189,4.991-9.384,4.991-15.005c0-7.227-3.074-13.747-7.979-18.33c3.131-4.188,4.989-9.382,4.989-15.002
			c0-5.388-1.712-10.38-4.613-14.474c5.182-4.602,8.455-11.306,8.455-18.763c0-4.742-1.323-9.18-3.617-12.967
			c5.981-4.591,9.848-11.809,9.848-19.915c0-1.895-0.218-3.739-0.618-5.514c0.822,0.081,1.65,0.126,2.485,0.126
			c2.878,0,5.642-0.493,8.219-1.389c4.042,8.458,12.679,14.316,22.661,14.316c1.753,0,3.463-0.182,5.115-0.525
			c3.301,10.011,12.737,17.258,23.838,17.258c2.227,0,4.385-0.296,6.442-0.842c3.652,9.353,12.754,15.999,23.384,15.999
			c1.022,0,2.026-0.068,3.016-0.187c2.536,10.722,11.961,18.807,23.328,19.298c0.8,11.939,9.982,21.613,21.698,23.178
			c-0.003,0.183-0.013,0.365-0.013,0.549c0,9.634,5.459,18.012,13.443,22.218c-1.112,2.835-1.73,5.915-1.73,9.138
			c0,7.162,3.02,13.627,7.848,18.204c-3.199,4.213-5.104,9.462-5.104,15.148c0,6.748,2.682,12.877,7.029,17.392
			c-3.632,4.354-5.822,9.952-5.822,16.051C407.888,430.597,409.003,434.693,410.959,438.264z M425.31,467.205
			c-1.992,0-3.823-0.703-5.261-1.87c-0.387-0.407-0.785-0.804-1.198-1.186c-1.19-1.446-1.906-3.296-1.906-5.311
			c0-4.614,3.753-8.366,8.366-8.366c4.614,0,8.366,3.753,8.366,8.366C433.677,463.452,429.922,467.205,425.31,467.205z
			 M432.984,434.614c-4.614,0-8.366-3.753-8.366-8.366c0-4.614,3.753-8.366,8.366-8.366s8.366,3.753,8.366,8.366
			C441.351,430.861,437.597,434.614,432.984,434.614z"/>
	</g>
</g>
<g>
</g>
<g>
</g>
<g>
</g>
<g>
</g>
<g>
</g>
<g>
</g>
<g>
</g>
<g>
</g>
<g>
</g>
<g>
</g>
<g>
</g>
<g>
</g>
<g>
</g>
<g>
</g>
<g>
</g>
</svg>
