<?xml version="1.0" encoding="iso-8859-1"?>
<!-- Generator: Adobe Illustrator 19.0.0, SVG Export Plug-In . SVG Version: 6.00 Build 0)  -->
<svg version="1.1" id="Layer_1" xmlns="http://www.w3.org/2000/svg" xmlns:xlink="http://www.w3.org/1999/xlink" x="0px" y="0px"
	 viewBox="0 0 512 512" style="enable-background:new 0 0 512 512;" xml:space="preserve">
<g>
	<g>
		<path d="M256,51.892c-144.951,0-256,53.622-256,124.541v152.216c0,36.446,28.866,69.253,81.279,92.377
			c24.71,10.901,53.58,19.225,84.939,24.672c8.786,8.889,20.974,14.411,34.43,14.411h110.703c13.456,0,25.644-5.521,34.43-14.411
			c31.359-5.448,60.228-13.77,84.939-24.672C483.134,397.901,512,365.095,512,328.649V176.432C512,95.827,380.195,51.892,256,51.892
			z M152.215,300.973v99.616c-19.781-4.544-38.043-10.425-54.179-17.544c-35.392-15.616-56.522-35.951-56.522-54.396v-82.446
			c11.162,8.26,24.45,15.848,39.766,22.605c21.263,9.381,45.609,16.848,71.966,22.222
			C152.573,294.241,152.215,297.565,152.215,300.973z M318.27,335.568h-44.025c-4.876-4.292-11.253-6.919-18.245-6.919
			c-15.26,0-27.676,12.415-27.676,27.676S240.74,384,256,384c6.992,0,13.367-2.626,18.245-6.919h44.025v30.789
			c-19.947,2.505-40.856,3.805-62.27,3.805s-42.323-1.301-62.27-3.805V300.973c0-1.25,0.36-2.408,0.941-3.421
			c19.831,2.254,40.394,3.421,61.329,3.421s41.498-1.167,61.329-3.421c0.581,1.013,0.941,2.171,0.941,3.421V335.568z
			 M325.586,254.678c-4.503-1.388-9.282-2.138-14.235-2.138H200.649c-4.953,0-9.732,0.75-14.235,2.138
			c-4.521-0.642-8.984-1.351-13.391-2.119c26.058-4.546,54.143-6.938,82.977-6.938s56.919,2.393,82.976,6.938
			C334.57,253.328,330.106,254.036,325.586,254.678z M470.485,328.649c0.001,18.446-21.129,38.781-56.522,54.396
			c-16.136,7.118-34.398,12.999-54.179,17.544v-99.616c0-3.407-0.358-6.732-1.031-9.942c26.357-5.375,50.705-12.842,71.966-22.222
			c15.316-6.757,28.604-14.346,39.766-22.605V328.649z M415.561,230.108c-44.81-16.801-101.047-26-159.561-26
			c-58.513,0-114.752,9.199-159.561,26c-34.424-15.518-54.925-35.511-54.925-53.676c0-43.589,104.13-83.027,214.487-83.027
			c109.319,0,214.487,39.784,214.487,83.027C470.487,194.597,449.986,214.59,415.561,230.108z"/>
	</g>
</g>
<g>
</g>
<g>
</g>
<g>
</g>
<g>
</g>
<g>
</g>
<g>
</g>
<g>
</g>
<g>
</g>
<g>
</g>
<g>
</g>
<g>
</g>
<g>
</g>
<g>
</g>
<g>
</g>
<g>
</g>
</svg>
