<svg xmlns="http://www.w3.org/2000/svg" xml:space="preserve" viewBox="0 0 512 512">
  <path d="M256 52C111 52 0 106 0 176v153c0 36 29 69 81 92 25 11 54 19 85 25 9 9 21 14 35 14h110c14 0 26-5 35-14 31-6 60-14 85-25 52-23 81-56 81-92V176c0-80-132-124-256-124zM152 301v100c-20-5-38-11-54-18-35-16-56-36-56-54v-83c11 8 24 16 39 23 22 9 46 17 72 22l-1 10zm166 35h-44c-5-5-11-7-18-7a28 28 0 1 0 18 48h44v31a501 501 0 0 1-124 0V301l1-3a543 543 0 0 0 123 0v38zm8-81c-5-2-10-2-15-2H201c-5 0-10 0-15 2l-13-2a485 485 0 0 1 166 0l-13 2zm144 74c0 18-21 38-56 54-16 7-34 13-54 18V301l-1-10c26-5 50-13 72-22 15-7 28-15 39-23v83zm-54-99c-45-17-101-26-160-26s-115 9-160 26c-34-15-54-35-54-54 0-43 104-83 214-83 109 0 214 40 214 83 0 19-20 39-54 54z"/>
</svg>