<svg xmlns="http://www.w3.org/2000/svg" xml:space="preserve" viewBox="0 0 512 512">
  <path fill="#355468" d="m211 26-18 4a8 8 0 0 0 4 16l14-4V26zm93 1-11-2v16a210 210 0 0 1 58 19 43 43 0 0 1 10-12c-17-10-36-17-57-21zm-83 93a8 8 0 0 1-7-12l33-58a8 8 0 0 1 14 0l33 58a8 8 0 1 1-14 8l-26-46-26 46c-1 2-4 4-7 4zm-78-56 3 4c8-4 16-9 25-12a8 8 0 0 0-7-15c-10 4-19 9-29 15l8 8z"/>
  <path fill="#8f5daf" d="M413 93a43 43 0 0 1-59 11 43 43 0 0 1-11-60c13-19 40-24 59-11 20 14 25 41 11 60z"/>
  <path fill="#e8a09c" d="M460 164c-20 13-46 7-59-13a43 43 0 1 1 71-47c13 20 8 46-12 60z"/>
  <path fill="#53e7d3" d="M477 246c-23 5-46-10-51-33-4-23 11-46 34-51 23-4 46 11 50 34 5 23-10 46-33 50z"/>
  <path fill="#8f5daf" d="M461 330a43 43 0 0 1 16-85 43 43 0 0 1-16 85z"/>
  <path fill="#e8a09c" d="M347 450c-13-20-9-46 11-60 19-14 46-9 59 10a43 43 0 1 1-70 50z"/>
  <path fill="#53e7d3" d="M266 469c-6-23 8-46 31-51 23-6 46 9 52 32a43 43 0 0 1-83 19z"/>
  <path fill="#e8a09c" d="M59 345a43 43 0 0 1 51 69 43 43 0 0 1-59-8 43 43 0 0 1 8-61z"/>
  <path d="M74 406a43 43 0 0 1 23-68c-13-3-26-1-38 7a43 43 0 0 0-8 61c11 14 29 20 46 15-9-2-17-8-23-15z" opacity=".1"/>
  <path fill="#53e7d3" d="M38 264c23-6 46 7 52 30s-8 47-30 53c-23 6-47-8-53-31s8-46 31-52z"/>
  <path d="M31 316c-6-23 7-46 29-52a43 43 0 1 0-1 83l1-1c-14-4-25-15-29-30z" opacity=".1"/>
  <path fill="#8f5daf" d="M48 180a43 43 0 0 1-11 85 43 43 0 0 1 11-85z"/>
  <path d="M24 217c2-18 15-31 31-36a43 43 0 0 0-55 36 43 43 0 0 0 55 47c-20-6-34-26-31-47z" opacity=".1"/>
  <path fill="#53e7d3" d="M89 106c21 11 28 38 16 58a43 43 0 0 1-58 17 43 43 0 0 1-16-59c11-21 38-28 58-16z"/>
  <path d="M70 181a43 43 0 0 1 10-79c-19-5-39 3-49 20-12 21-4 47 16 59 11 5 22 7 33 4l-10-4z" opacity=".1"/>
  <path fill="#e8a09c" d="M155 53c14 18 11 45-7 60a43 43 0 0 1-60-7 43 43 0 0 1 7-60c18-15 45-12 60 7z"/>
  <path d="M111 106a43 43 0 0 1 22-68c-13-3-27-1-38 8a43 43 0 0 0-7 60c11 14 29 19 45 15-8-2-16-7-22-15z" opacity=".1"/>
  <path fill="#37c4b3" d="M300 44c0 5-4 10-10 10h-75c-6 0-11-5-11-10V17c0-6 5-11 11-11h75c6 0 10 5 10 11v27z"/>
  <path d="M226 44V17c0-6 5-11 11-11h-22c-6 0-11 5-11 11v27c0 5 5 10 11 10h22c-6 0-11-5-11-10z" opacity=".1"/>
  <path fill="#bf953e" d="M220 91a24 24 0 1 0 0 48 24 24 0 0 0 0-48zm70 0a24 24 0 1 0 0 48 24 24 0 0 0 0-48z"/>
  <path fill="#53e7d3" d="M416 401a43 43 0 0 1-13-59c13-20 39-26 59-13 20 12 26 39 13 59a43 43 0 0 1-59 13z"/>
  <g fill="#fff">
    <path d="M472 231c-3 0-5 0-8-2a6 6 0 0 1 1-10c9-2 16-9 17-18a6 6 0 0 1 11-1 23 23 0 0 1-16 31h-5zm-31 161-9-2a6 6 0 0 1 1-11c9-2 16-9 18-18a6 6 0 0 1 11-1 23 23 0 0 1-21 32z"/>
    <path d="m311 488-8-2a6 6 0 0 1 1-11c9-1 16-8 17-17a6 6 0 0 1 11-1 23 23 0 0 1-21 31z" opacity=".7"/>
  </g>
  <path fill="#8aa5b6" d="M244 6h16v48h-16z"/>
  <path fill="#53e7d3" d="M110 413c12-20 39-27 59-15s27 39 14 59a43 43 0 0 1-58 15 43 43 0 0 1-15-59z"/>
  <path d="M148 472a43 43 0 0 1 10-78c-18-5-38 2-48 19-12 20-5 47 15 59 10 6 22 7 33 4l-10-4z" opacity=".1"/>
  <path fill="#8f5daf" d="M182 456a43 43 0 1 1 85 14 43 43 0 1 1-85-14z"/>
</svg>