<?xml version="1.0" encoding="iso-8859-1"?>
<!-- Generator: Adobe Illustrator 19.0.0, SVG Export Plug-In . SVG Version: 6.00 Build 0)  -->
<svg version="1.1" id="Layer_1" xmlns="http://www.w3.org/2000/svg" xmlns:xlink="http://www.w3.org/1999/xlink" x="0px" y="0px"
	 viewBox="0 0 512 512" style="enable-background:new 0 0 512 512;" xml:space="preserve">
<g>
	<rect x="364.837" y="117.091" style="fill:#5A482E;" width="15.673" height="60.54"/>
	<rect x="131.49" y="117.091" style="fill:#5A482E;" width="15.673" height="60.54"/>
</g>
<path style="fill:#16786C;" d="M372.671,512c38.113,0,71.237-27.209,80.557-66.171c0.206-1.987,0.821-4.122,1.093-6.171
	c0.315-2.375,0.555-4.761,0.763-7.148c0.282-3.243,0.479-6.501,0.641-9.746c0.74-52.511-29.739-106.898-79.546-141.938
	c-1.046-0.736-2.277-1.104-3.507-1.104c-1.23,0-2.46,0.369-3.507,1.104c-49.804,35.04-80.285,89.428-79.546,141.939h0.002
	c0.043,1.953,0.809,15.532,2.265,22.037c0.1,0.553,0.184,1.115,0.379,1.644C301.787,485.076,334.764,512,372.671,512z"/>
<path style="fill:#EFBA50;" d="M395.136,230.129c0,12.242-10.059,22.166-22.465,22.166l0,0c-12.408,0-22.465-9.924-22.465-22.166
	l0,0c0-12.243,10.057-22.168,22.465-22.168l0,0C385.077,207.962,395.136,217.886,395.136,230.129L395.136,230.129z"/>
<path style="opacity:0.1;enable-background:new    ;" d="M372.565,230.129c0-8.222,4.547-15.383,11.287-19.209
	c-3.296-1.871-7.105-2.958-11.179-2.958c-12.408,0-22.465,9.924-22.465,22.168c0,12.242,10.057,22.166,22.465,22.166
	c4.074,0,7.884-1.087,11.179-2.958C377.111,245.511,372.565,238.352,372.565,230.129z"/>
<path style="opacity:0.1;enable-background:new    ;" d="M314.265,444.803c-1.458-6.504-2.223-20.084-2.264-22.037h-0.002
	c-0.701-49.751,26.633-101.172,71.863-136.242c-2.51-1.947-5.064-3.855-7.683-5.697c-1.046-0.736-2.277-1.104-3.507-1.104
	c-1.23,0-2.46,0.369-3.507,1.104c-49.804,35.04-80.285,89.428-79.546,141.939h0.002c0.043,1.953,0.809,15.532,2.265,22.037
	c0.1,0.553,0.184,1.115,0.379,1.644c9.522,38.63,42.499,65.554,80.406,65.554c3.788,0,7.522-0.28,11.192-0.804
	c-33.069-4.702-60.647-29.976-69.22-64.751C314.548,446.19,314.265,444.803,314.265,444.803z"/>
<path style="fill:#EFBA50;" d="M372.671,475.001c-20.475,0-38.559-15.339-43.973-37.299c-0.582-2.487-0.783-5.059-1.014-7.597
	c-0.246-2.714-0.468-5.434-0.575-8.158c-0.373-33.846,16.664-69.125,45.563-96.161c28.892,27.026,45.933,62.308,45.559,96.16
	c-0.133,3.392-0.788,11.622-1.344,14.624c-0.167,0.639-0.316,1.284-0.448,1.926C410.788,460.052,392.944,475.001,372.671,475.001z"
	/>
<path style="opacity:0.1;enable-background:new    ;" d="M362.209,436.806c-0.555-2.68-1.25-11.355-1.388-14.859
	c-0.294-26.607,10.177-54.098,28.709-77.776c-5.041-6.443-10.674-12.605-16.855-18.386c-28.899,27.036-45.937,62.316-45.563,96.161
	c0.107,2.723,0.329,5.445,0.575,8.158c0.23,2.538,0.432,5.111,1.014,7.597c5.415,21.961,23.499,37.299,43.973,37.299
	c5.912,0,11.61-1.279,16.868-3.613c-12.993-5.775-23.275-18.049-27.131-33.685C362.389,437.619,362.259,437.026,362.209,436.806z"/>
<path style="fill:#16786C;" d="M395.136,105.71c0,12.408-10.059,22.465-22.465,22.465l0,0c-12.408,0-22.465-10.057-22.465-22.465
	l0,0c0-12.407,10.057-22.465,22.465-22.465l0,0C385.077,83.245,395.136,93.303,395.136,105.71L395.136,105.71z"/>
<path style="opacity:0.1;enable-background:new    ;" d="M372.565,105.71c0-8.334,4.547-15.589,11.287-19.467
	c-3.296-1.896-7.105-2.998-11.179-2.998c-12.408,0-22.465,10.058-22.465,22.465c0,12.408,10.057,22.465,22.465,22.465
	c4.074,0,7.884-1.101,11.179-2.998C377.111,121.3,372.565,114.044,372.565,105.71z"/>
<circle style="fill:#EFBA50;" cx="372.673" cy="45.15" r="45.15"/>
<path style="fill:#FFFFFF;" d="M372.671,61.319c-8.913,0-16.167-7.253-16.167-16.167s7.253-16.167,16.167-16.167
	c8.914,0,16.167,7.252,16.167,16.167C388.838,54.065,381.586,61.319,372.671,61.319z"/>
<path style="fill:#37C4B3;" d="M404.557,286.956c0,2.96-2.422,5.382-5.383,5.382h-53.006c-2.961,0-5.382-2.422-5.382-5.382v-32.138
	c0-2.96,2.421-5.383,5.382-5.383h53.006c2.961,0,5.383,2.423,5.383,5.383V286.956z"/>
<path style="opacity:0.1;enable-background:new    ;" d="M374.179,286.956v-32.138c0-2.96,2.423-5.383,5.383-5.383h-33.394
	c-2.961,0-5.382,2.423-5.382,5.383v32.138c0,2.96,2.421,5.382,5.382,5.382h33.394C376.602,292.338,374.179,289.916,374.179,286.956z
	"/>
<path style="fill:#36E3CC;" d="M395.136,188.657c0,12.242-10.059,22.166-22.465,22.166l0,0c-12.408,0-22.465-9.924-22.465-22.166
	l0,0c0-12.244,10.057-22.168,22.465-22.168l0,0C385.077,166.49,395.136,176.413,395.136,188.657L395.136,188.657z"/>
<path style="opacity:0.1;enable-background:new    ;" d="M372.565,188.657c0-8.222,4.547-15.383,11.287-19.21
	c-3.296-1.87-7.105-2.957-11.179-2.957c-12.408,0-22.465,9.923-22.465,22.168c0,12.242,10.057,22.166,22.465,22.166
	c4.074,0,7.884-1.088,11.179-2.958C377.111,204.038,372.565,196.879,372.565,188.657z"/>
<path style="fill:#16786C;" d="M139.329,512c38.111,0,71.236-27.209,80.555-66.171l-0.03-0.005c0.094-0.307,0.181-0.634,0.25-0.983
	c1.469-6.508,2.231-20.1,2.273-22.076h0.004c0.741-52.511-29.738-106.898-79.544-141.938c-1.047-0.736-2.278-1.104-3.507-1.104
	c-1.231,0-2.461,0.369-3.508,1.104c-49.805,35.04-80.285,89.428-79.545,141.939h0.002c0.043,1.953,0.808,15.532,2.264,22.037
	c0,0,0.118,0.654,0.156,0.84c0.055,0.278,0.129,0.548,0.223,0.805C68.444,485.076,101.421,512,139.329,512z"/>
<path style="fill:#EFBA50;" d="M161.793,230.129c0,12.242-10.058,22.166-22.464,22.166l0,0c-12.41,0-22.466-9.924-22.466-22.166l0,0
	c0-12.243,10.056-22.168,22.466-22.168l0,0C151.735,207.962,161.793,217.886,161.793,230.129L161.793,230.129z"/>
<path style="opacity:0.1;enable-background:new    ;" d="M139.22,230.129c0-8.222,4.548-15.383,11.286-19.209
	c-3.294-1.871-7.104-2.958-11.177-2.958c-12.41,0-22.466,9.924-22.466,22.168c0,12.242,10.056,22.166,22.466,22.166
	c4.073,0,7.884-1.087,11.177-2.958C143.769,245.511,139.22,238.352,139.22,230.129z"/>
<path style="opacity:0.1;enable-background:new    ;" d="M80.92,444.803c-1.458-6.504-2.222-20.084-2.264-22.037h-0.003
	c-0.7-49.751,26.635-101.172,71.863-136.242c-2.509-1.947-5.061-3.855-7.681-5.697c-1.047-0.736-2.278-1.104-3.507-1.104
	c-1.231,0-2.461,0.369-3.508,1.104c-49.805,35.04-80.285,89.428-79.545,141.939h0.002c0.043,1.953,0.808,15.532,2.264,22.037
	c0.1,0.553,0.184,1.114,0.378,1.644C68.444,485.076,101.421,512,139.329,512c3.786,0,7.52-0.28,11.19-0.804
	c-33.067-4.702-60.646-29.976-69.219-64.751C81.204,446.19,80.92,444.803,80.92,444.803z"/>
<path style="fill:#EFBA50;" d="M139.329,475.001c-20.476,0-38.56-15.339-43.976-37.299c-0.019-0.083-0.04-0.164-0.059-0.245
	c-0.046-0.216-0.09-0.43-0.14-0.651c-0.556-2.68-1.252-11.355-1.389-14.859c-0.373-33.846,16.665-69.125,45.564-96.161
	c28.892,27.026,45.932,62.308,45.558,96.16c-0.133,3.392-0.787,11.622-1.345,14.624c-0.167,0.639-0.315,1.284-0.447,1.926
	C177.442,460.052,159.601,475.001,139.329,475.001z"/>
<path style="opacity:0.1;enable-background:new    ;" d="M129.065,437.703c-0.02-0.083-0.04-0.164-0.06-0.245
	c-0.046-0.216-0.091-0.43-0.141-0.651c-0.555-2.68-1.251-11.355-1.388-14.859c-0.295-26.607,10.178-54.098,28.71-77.776
	c-5.043-6.443-10.676-12.605-16.855-18.386c-28.899,27.036-45.938,62.316-45.564,96.161c0.137,3.504,0.833,12.178,1.389,14.859
	c0.05,0.22,0.094,0.435,0.14,0.651c0.019,0.08,0.04,0.162,0.059,0.245C100.77,459.662,118.854,475,139.33,475
	c5.91,0,11.61-1.279,16.867-3.613C143.202,465.612,132.92,453.338,129.065,437.703z"/>
<path style="fill:#16786C;" d="M161.793,105.71c0,12.408-10.058,22.465-22.464,22.465l0,0c-12.41,0-22.466-10.057-22.466-22.465l0,0
	c0-12.407,10.056-22.465,22.466-22.465l0,0C151.735,83.245,161.793,93.303,161.793,105.71L161.793,105.71z"/>
<path style="opacity:0.1;enable-background:new    ;" d="M139.22,105.71c0-8.334,4.548-15.589,11.286-19.467
	c-3.294-1.896-7.104-2.998-11.177-2.998c-12.41,0-22.466,10.058-22.466,22.465c0,12.408,10.056,22.465,22.466,22.465
	c4.073,0,7.884-1.101,11.177-2.998C143.769,121.3,139.22,114.044,139.22,105.71z"/>
<circle style="fill:#EFBA50;" cx="139.327" cy="45.15" r="45.15"/>
<path style="fill:#FFFFFF;" d="M139.329,61.319c-8.914,0-16.167-7.253-16.167-16.167s7.252-16.167,16.167-16.167
	c8.913,0,16.167,7.252,16.167,16.167C155.495,54.065,148.242,61.319,139.329,61.319z"/>
<path style="fill:#37C4B3;" d="M171.212,286.956c0,2.96-2.421,5.382-5.382,5.382h-53.006c-2.961,0-5.383-2.422-5.383-5.382v-32.138
	c0-2.96,2.422-5.383,5.383-5.383h53.006c2.961,0,5.382,2.423,5.382,5.383V286.956z"/>
<path style="opacity:0.1;enable-background:new    ;" d="M140.836,286.956v-32.138c0-2.96,2.422-5.383,5.382-5.383h-33.394
	c-2.961,0-5.383,2.423-5.383,5.383v32.138c0,2.96,2.422,5.382,5.383,5.382h33.394C143.258,292.338,140.836,289.916,140.836,286.956z
	"/>
<path style="fill:#36E3CC;" d="M161.793,188.657c0,12.242-10.058,22.166-22.464,22.166l0,0c-12.41,0-22.466-9.924-22.466-22.166l0,0
	c0-12.244,10.056-22.168,22.466-22.168l0,0C151.735,166.49,161.793,176.413,161.793,188.657L161.793,188.657z"/>
<path style="opacity:0.1;enable-background:new    ;" d="M139.22,188.657c0-8.222,4.548-15.383,11.286-19.21
	c-3.294-1.87-7.104-2.957-11.177-2.957c-12.41,0-22.466,9.923-22.466,22.168c0,12.242,10.056,22.166,22.466,22.166
	c4.073,0,7.884-1.088,11.177-2.958C143.769,204.038,139.22,196.879,139.22,188.657z"/>
<g>
</g>
<g>
</g>
<g>
</g>
<g>
</g>
<g>
</g>
<g>
</g>
<g>
</g>
<g>
</g>
<g>
</g>
<g>
</g>
<g>
</g>
<g>
</g>
<g>
</g>
<g>
</g>
<g>
</g>
</svg>
