<svg xmlns="http://www.w3.org/2000/svg" xml:space="preserve" viewBox="0 0 512 512">
  <path fill="#5a482e" d="M365 117h16v61h-16zm-233 0h16v61h-16z"/>
  <path fill="#16786c" d="M373 512c38 0 71-27 80-66l1-6a160 160 0 0 0 2-17c0-53-30-107-80-142a6 6 0 0 0-7 0c-50 35-80 89-79 142 0 2 0 15 2 22v1c10 39 43 66 81 66z"/>
  <path fill="#efba50" d="M395 230c0 12-10 22-22 22-13 0-23-10-23-22s10-22 23-22c12 0 22 10 22 22z"/>
  <path d="M373 230c0-8 4-15 11-19a23 23 0 0 0-34 19c0 12 10 22 23 22 4 0 8-1 11-3-7-3-11-11-11-19zm-59 215-2-22c-1-50 27-101 72-136l-8-6a6 6 0 0 0-7 0c-50 35-80 89-79 142 0 2 0 15 2 22v1a84 84 0 0 0 92 65c-33-5-61-30-69-65l-1-1z" opacity=".1"/>
  <path fill="#efba50" d="M373 475c-21 0-39-15-44-37l-1-8-1-8c0-34 17-69 46-96 29 27 46 62 45 96a157 157 0 0 1-2 16c-5 22-23 37-43 37z"/>
  <path d="m362 437-1-15c0-27 10-54 29-78l-17-18a134 134 0 0 0-45 104l1 8c5 22 23 37 44 37 6 0 11-1 17-4-13-5-24-18-28-33v-1z" opacity=".1"/>
  <path fill="#16786c" d="M395 106c0 12-10 22-22 22-13 0-23-10-23-22 0-13 10-23 23-23 12 0 22 10 22 23z"/>
  <path d="M373 106c0-9 4-16 11-20a22 22 0 1 0 0 39c-7-4-11-11-11-19z" opacity=".1"/>
  <circle cx="372.7" cy="45.1" r="45.1" fill="#efba50"/>
  <path fill="#fff" d="M373 61a16 16 0 1 1 0-32 16 16 0 0 1 0 32z"/>
  <path fill="#37c4b3" d="M405 287c0 3-3 5-6 5h-53c-3 0-5-2-5-5v-32c0-3 2-6 5-6h53c3 0 6 3 6 6v32z"/>
  <path d="M374 287v-32c0-3 3-6 6-6h-34c-3 0-5 3-5 6v32c0 3 2 5 5 5h34c-3 0-6-2-6-5z" opacity=".1"/>
  <path fill="#36e3cc" d="M395 189c0 12-10 22-22 22-13 0-23-10-23-22 0-13 10-23 23-23 12 0 22 10 22 23z"/>
  <path d="M373 189c0-9 4-16 11-20a23 23 0 0 0-34 20c0 12 10 22 23 22 4 0 8-1 11-3-7-4-11-11-11-19z" opacity=".1"/>
  <path fill="#16786c" d="M139 512c38 0 72-27 81-66v-1c2-7 2-20 2-22 1-53-29-107-79-142a6 6 0 0 0-7 0c-50 35-80 89-80 142a170 170 0 0 0 3 23c9 39 42 66 80 66z"/>
  <path fill="#efba50" d="M162 230c0 12-10 22-23 22-12 0-22-10-22-22s10-22 22-22c13 0 23 10 23 22z"/>
  <path d="M139 230c0-8 5-15 12-19a23 23 0 0 0-34 19c0 12 10 22 22 22l12-3c-7-3-12-11-12-19zM81 445c-2-7-2-20-2-22-1-50 26-101 72-136l-8-6a6 6 0 0 0-7 0c-50 35-80 89-80 142 0 2 1 15 3 22v1a84 84 0 0 0 92 65 85 85 0 0 1-70-66z" opacity=".1"/>
  <path fill="#efba50" d="M139 475c-20 0-38-15-44-37v-1l-1-15c-1-34 16-69 45-96 29 27 46 62 46 96a157 157 0 0 1-2 16c-6 22-23 37-44 37z"/>
  <path d="M129 438v-1l-2-15c0-27 11-54 29-78l-17-18c-29 27-46 62-45 96l1 15v1c6 22 24 37 44 37 6 0 12-1 17-4-13-5-23-18-27-33z" opacity=".1"/>
  <path fill="#16786c" d="M162 106c0 12-10 22-23 22-12 0-22-10-22-22 0-13 10-23 22-23 13 0 23 10 23 23z"/>
  <path d="M139 106c0-9 5-16 12-20l-12-3a22 22 0 1 0 12 42c-7-4-12-11-12-19z" opacity=".1"/>
  <circle cx="139.3" cy="45.1" r="45.1" fill="#efba50"/>
  <path fill="#fff" d="M139 61a16 16 0 1 1 0-32 16 16 0 0 1 0 32z"/>
  <path fill="#37c4b3" d="M171 287c0 3-2 5-5 5h-53c-3 0-6-2-6-5v-32c0-3 3-6 6-6h53c3 0 5 3 5 6v32z"/>
  <path d="M141 287v-32c0-3 2-6 5-6h-33c-3 0-6 3-6 6v32c0 3 3 5 6 5h33c-3 0-5-2-5-5z" opacity=".1"/>
  <path fill="#36e3cc" d="M162 189c0 12-10 22-23 22-12 0-22-10-22-22 0-13 10-23 22-23 13 0 23 10 23 23z"/>
  <path d="M139 189c0-9 5-16 12-20a23 23 0 0 0-34 20c0 12 10 22 22 22l12-3c-7-4-12-11-12-19z" opacity=".1"/>
</svg>