<svg xmlns="http://www.w3.org/2000/svg" xml:space="preserve" viewBox="0 0 336 336">
  <path fill="#484666" d="M48 56c-13 0-24 11-24 24a24 24 0 0 0 48 0c0-13-11-24-24-24z"/>
  <path fill="#93cfef" d="M48 72c4 0 8 4 8 8 0 5-4 8-8 8-5 0-8-3-8-8 0-4 3-8 8-8z"/>
  <path fill="#484666" d="M72 104c-13 0-24 11-24 24s11 24 24 24 24-11 24-24-11-24-24-24z"/>
  <path fill="#93cfef" d="M72 120c5 0 8 4 8 8 0 5-3 8-8 8s-8-3-8-8c0-4 3-8 8-8z"/>
  <path fill="#484666" d="M112 144c-13 0-24 11-24 24s11 24 24 24 24-11 24-24-11-24-24-24z"/>
  <path fill="#93cfef" d="M112 160c4 0 8 4 8 8s-4 8-8 8c-5 0-8-3-8-8 0-4 3-8 8-8z"/>
  <path fill="#484666" d="M168 168c-13 0-24 11-24 24a24 24 0 0 0 48 0c0-13-11-24-24-24z"/>
  <path fill="#93cfef" d="M168 184c4 0 8 4 8 8s-4 8-8 8c-5 0-8-3-8-8 0-4 3-8 8-8z"/>
  <path fill="#484666" d="M288 56c13 0 24 11 24 24s-11 24-24 24a24 24 0 0 1 0-48z"/>
  <path fill="#93cfef" d="M288 72c-5 0-8 4-8 8 0 5 3 8 8 8 4 0 8-3 8-8 0-4-4-8-8-8z"/>
  <path fill="#484666" d="M264 104c13 0 24 11 24 24s-11 24-24 24-24-11-24-24 11-24 24-24z"/>
  <path fill="#93cfef" d="M264 120c-5 0-8 4-8 8s3 8 8 8 8-3 8-8c0-4-3-8-8-8z"/>
  <path fill="#484666" d="M224 144c13 0 24 11 24 24s-11 24-24 24-24-11-24-24 11-24 24-24z"/>
  <path fill="#93cfef" d="M224 160c-4 0-8 4-8 8s4 8 8 8c5 0 8-3 8-8 0-4-3-8-8-8z"/>
  <path fill="#484666" d="M140 224c-20 0-36 16-36 35 0 9 5 18 9 25 7 11 19 23 30 33l20 17c3 3 7 3 10 0l20-17c11-10 23-22 30-33 4-6 9-15 9-25 0-20-16-35-36-35-17 0-24 11-28 16-4-5-11-16-28-16z"/>
  <path fill="#d87070" d="M196 240c14 0 19 10 20 19 0 5-3 11-7 17-5 8-17 20-27 29l-14 12-14-12c-10-9-22-21-27-29-4-6-7-14-7-17 0-10 9-19 20-19 10 0 22 13 22 13 3 4 9 4 12 0 7-7 13-13 22-13z"/>
  <path fill="#484666" d="M40 0a24 24 0 0 0 0 48c13 0 24-11 24-24S53 0 40 0z"/>
  <path fill="#93cfef" d="M40 16c4 0 8 3 8 8 0 4-4 8-8 8-5 0-8-4-8-8 0-5 3-8 8-8z"/>
  <path fill="#484666" d="M296 0a24 24 0 0 0 0 48c13 0 24-11 24-24S309 0 296 0z"/>
  <path fill="#93cfef" d="M296 16c5 0 8 3 8 8 0 4-3 8-8 8-4 0-8-4-8-8 0-5 4-8 8-8z"/>
  <path fill="#64a5da" d="m296 16-2 1c3 1 5 3 5 7s-2 6-5 7l2 1c5 0 8-4 8-8 0-5-3-8-8-8zm-8 56-2 1c3 1 5 3 5 7s-2 6-5 8h2c4 0 8-4 8-8 0-5-4-8-8-8zm-24 48-2 1c3 1 5 3 5 7s-2 6-5 8h2c5 0 8-4 8-8 0-5-3-8-8-8zm-40 40-3 1c4 1 6 3 6 7s-2 6-6 8h3c4 0 8-4 8-8 0-5-4-8-8-8zm-56 24-3 1c4 1 6 3 6 7s-2 7-6 8h3c4 0 8-4 8-8 0-5-4-8-8-8zm-56-24-3 1c4 1 6 3 6 7s-2 6-6 8h3c4 0 8-4 8-8 0-5-4-8-8-8zm-40-40-3 1c4 1 6 3 6 7s-2 6-6 8h3c4 0 8-4 8-8 0-5-4-8-8-8zM48 72l-3 1c4 1 6 3 6 7s-2 6-6 8h3c4 0 8-4 8-8 0-5-4-8-8-8zm-8-56-3 1c4 1 6 3 6 7s-2 6-6 7l3 1c4 0 8-4 8-8 0-5-4-8-8-8z"/>
  <path fill="#bd5858" d="m196 240-4 1c9 1 16 9 16 18 0 5-3 11-7 17-5 8-17 20-27 29l-10 9 4 3 14-12c10-9 22-21 27-29 4-6 7-12 7-17 0-11-9-19-20-19zm-56 0-4 1c9 2 18 12 18 12 2 3 7 4 10 2l-2-2s-12-13-22-13z"/>
</svg>