<svg xmlns="http://www.w3.org/2000/svg" xml:space="preserve" viewBox="0 0 511 511">
  <path fill="#ffdd09" d="M414 68h-9c-5 0-9-4-9-9s4-8 9-8h9c5 0 8 3 8 8s-3 9-8 9zm-35 0h-8c-5 0-9-4-9-9s4-8 9-8h8c6 0 9 3 9 8s-3 9-9 9zm-34 0h-8c-5 0-9-4-9-9s4-8 9-8h8c5 0 9 3 9 8s-4 9-9 9zm-34 0h-8c-6 0-9-4-9-9s3-8 9-8h8c5 0 9 3 9 8s-4 9-9 9zm-8-26c-5 0-8-3-9-7s2-9 7-10l8-2c5-1 10 2 11 7 1 4-2 9-7 10l-9 2h-1zm33-7c-4 0-8-2-9-7s2-9 7-10l9-2c4 0 9 2 10 7 1 4-2 10-7 10l-8 2h-2zm33-8c-4 0-8-2-8-6s1-10 6-11l9-1c4-1 9 1 10 7 1 4-1 9-7 10l-8 1h-2zm9 83h-2l-9-1c-4-1-7-6-6-11 0-4 6-7 10-7l8 2c5 1 8 6 7 10-1 5-5 7-8 7zm-34-7h-1l-9-2c-4-1-8-6-7-10 1-5 6-8 11-7l8 1c4 1 8 6 7 11-1 4-5 7-9 7zm-33-8h-2l-8-2c-4-1-8-6-7-10s6-8 10-7l9 2c4 1 8 6 7 10-2 4-5 7-9 7z"/>
  <path fill="#54c9fd" d="M192 76h34V25h-34v51z"/>
  <path fill="#33a9f8" d="M226 76h17V25h-17v51z"/>
  <path fill="#fff" d="M192 76h17V25h-17v51z"/>
  <path fill="#54c9fd" d="M243 25v51h17V35c0-5-4-10-10-10h-7zm-9 105V84c0-4-3-8-7-8h-45c-4 0-7 4-7 8v46c26-15 33-15 59 0"/>
  <path fill="#33a9f8" d="M252 76h-25c4 0 7 4 7 8v37c9 2 17 5 26 10V84c0-4-3-8-8-8"/>
  <path fill="#fff" d="M182 76h26c-4 0-8 4-8 8v37c-8 2-17 5-25 10V84c0-4 3-8 7-8"/>
  <path fill="#54c9fd" d="M269 68h-25c4 0 7 4 7 8v42c9 2 17 4 26 9V76c0-4-3-8-8-8"/>
  <g fill="#ffdd09">
    <path d="M242 134c-31-20-45-20-75 0-33 22-69 62-69 130v15c0 18 2 36 7 53l53 171h93l52-171c6-17 8-35 8-53v-15c0-68-37-108-69-130"/>
    <path d="M98 289c1 15 3 29 7 44l53 171h119l52-171c4-14 7-28 8-43a82 82 0 0 1-120-1 83 83 0 0 0-119 0"/>
  </g>
  <path fill="#fd9808" d="M267 134a90 90 0 0 0-58-14c9 1 19 6 32 14 33 22 69 62 69 130v15c0 18-2 36-7 53l-52 171h25l52-170c5-17 8-35 8-53v-15c0-69-36-109-69-131"/>
  <path fill="#fff" d="M167 134c18-12 38-16 58-14-9 1-20 6-32 14-33 22-70 62-70 130v15c0 18 3 36 8 53l52 171h-25l-53-170c-5-17-7-35-7-53v-15c0-69 36-109 69-131"/>
  <path fill="#ffdd09" d="M292 134a90 90 0 0 0-58-14c10 1 20 6 33 14 32 22 69 62 69 130v15c0 18-3 36-8 53l-52 171h15c6 0 12-4 13-10l50-160c5-17 7-35 7-53v-15c0-69-35-109-69-131"/>
  <path d="M283 511H152L98 336c-5-18-9-37-9-56v-15c0-73 40-115 73-137 33-23 77-23 111 0 33 22 72 64 72 137v15c0 19-2 38-8 56l-54 175zm-120-17h107l51-164c5-16 7-33 7-50v-15c0-65-36-103-65-122a81 81 0 0 0-91 0c-30 18-66 56-66 121v15c0 17 3 34 8 51l49 164zm80-409h-51c-5 0-9-4-9-9V25c0-5 4-9 9-9h51c5 0 8 4 8 9v51c0 5-3 9-8 9zm-43-17h34V33h-34v35z"/>
  <path d="M243 59h-17c-5 0-9-3-9-8s4-9 9-9h17c5 0 8 3 8 9s-3 8-8 8zm162 0h-9c-5 0-8-3-8-8s3-9 8-9h9c5 0 9 3 9 9s-4 8-9 8zm-34 0h-9c-5 0-8-3-8-8s3-9 8-9h9c5 0 8 3 8 9s-3 8-8 8zm-34 0h-9c-5 0-8-3-8-8s3-9 8-9h9c5 0 8 3 8 9s-3 8-8 8zm-34 0h-9c-5 0-8-3-8-8s3-9 8-9h9c5 0 8 3 8 9s-3 8-8 8zm-9-26c-4 0-8-2-8-6s1-10 6-11l9-1c4-1 9 1 10 6s-2 10-7 11l-8 1h-2zm33-6c-4 0-7-3-8-7s2-10 7-10l8-2c4-1 10 2 10 7 1 4-1 9-6 10l-9 2h-2zm34-8c-5 0-8-3-9-7s2-9 7-10l8-2c5-1 10 2 11 7 1 4-2 9-7 10l-9 2h-1zm8 83h-2l-8-2c-4-1-8-6-7-10 2-5 6-8 10-7l9 2c4 0 8 6 7 10s-5 7-9 7zm-33-8h-2l-8-2c-5-1-8-6-7-10 1-5 6-8 10-7l9 2c4 1 7 6 6 10 0 4-5 7-8 7zm-33-8h-2l-9-1c-4-1-7-6-6-11 0-4 5-7 10-6l8 1c5 1 8 6 7 11-2 4-5 6-8 6zm-35 58-12-6a83 83 0 0 0-78 0l-12 6V84c0-9 7-16 16-16h71c9 0 16 6 16 16v60h-1zm-51-33c12 0 23 2 34 6V85h-68v32c11-4 22-6 34-6zm60 400H158c-4 0-7-2-9-6L98 336c-4-15-7-30-8-46l3-7c17-17 40-28 65-28 23 0 46 10 64 27l2 1c15 16 34 24 54 24 19 0 38-8 53-23 2-2 6-3 9-1 4 1 5 5 5 8-1 16-3 30-7 45l-52 170c-2 3-6 5-9 5zm-114-17h107l51-164 5-19a94 94 0 0 1-113-13l-2-2a74 74 0 0 0-53-23c-19 0-37 7-51 20 1 13 4 25 7 37l49 164z"/>
</svg>