<?xml version="1.0" encoding="iso-8859-1"?>
<!-- Generator: Adobe Illustrator 19.0.0, SVG Export Plug-In . SVG Version: 6.00 Build 0)  -->
<svg version="1.1" id="Layer_1" xmlns="http://www.w3.org/2000/svg" xmlns:xlink="http://www.w3.org/1999/xlink" x="0px" y="0px"
	 viewBox="0 0 511.308 511.308" style="enable-background:new 0 0 511.308 511.308;" xml:space="preserve">
<g transform="translate(1)">
	<g>
		<path style="fill:#FFDD09;" d="M412.521,67.575h-8.533c-5.12,0-8.533-3.413-8.533-8.533s3.413-8.533,8.533-8.533h8.533
			c5.12,0,8.533,3.413,8.533,8.533S417.641,67.575,412.521,67.575z M378.388,67.575h-8.533c-5.12,0-8.533-3.413-8.533-8.533
			s3.413-8.533,8.533-8.533h8.533c5.12,0,8.533,3.413,8.533,8.533S383.508,67.575,378.388,67.575z M344.254,67.575h-8.533
			c-5.12,0-8.533-3.413-8.533-8.533s3.413-8.533,8.533-8.533h8.533c5.12,0,8.533,3.413,8.533,8.533S349.374,67.575,344.254,67.575z
			 M310.121,67.575h-8.533c-5.12,0-8.533-3.413-8.533-8.533s3.413-8.533,8.533-8.533h8.533c5.12,0,8.533,3.413,8.533,8.533
			S315.241,67.575,310.121,67.575z"/>
		<path style="fill:#FFDD09;" d="M301.588,41.975c-4.267,0-7.68-2.56-8.533-6.827c-0.853-4.267,1.707-9.387,6.827-10.24l8.533-1.707
			c4.267-0.853,9.387,1.707,10.24,6.827c0.853,4.267-1.707,9.387-6.827,10.24l-8.533,1.707
			C302.441,41.975,302.441,41.975,301.588,41.975z M334.868,35.148c-4.267,0-7.68-2.56-8.533-6.827s1.707-9.387,6.827-10.24
			l8.533-1.707c4.267-0.853,9.387,1.707,10.24,6.827c0.853,4.267-1.707,9.387-6.827,10.24l-8.533,1.707
			C335.721,34.295,335.721,35.148,334.868,35.148z M368.148,27.468c-4.267,0-7.68-2.56-8.533-6.827s1.707-9.387,6.827-10.24
			l8.533-1.707c4.267-0.853,9.387,1.707,10.24,6.827c0.853,4.267-1.707,9.387-6.827,10.24l-8.533,1.707
			C369.854,27.468,369.001,27.468,368.148,27.468z"/>
		<path style="fill:#FFDD09;" d="M376.681,110.242c-0.853,0-0.853,0-1.707,0l-8.533-1.707c-4.267-0.853-7.68-5.973-6.827-10.24
			c0.853-4.267,5.973-7.68,10.24-6.827l8.533,1.707c4.267,0.853,7.68,5.973,6.827,10.24
			C384.361,107.682,380.094,110.242,376.681,110.242z M343.401,102.562c-0.853,0-0.853,0-1.707,0l-8.533-1.707
			c-4.267-0.853-7.68-5.973-6.827-10.24c0.853-4.267,5.973-7.68,10.24-6.827l8.533,1.707c4.267,0.853,7.68,5.973,6.827,10.24
			C351.081,100.002,346.814,102.562,343.401,102.562z M310.121,94.882c-0.853,0-0.853,0-1.707,0l-8.533-1.707
			c-4.267-0.853-7.68-5.973-6.827-10.24s5.973-7.68,10.24-6.827l8.533,1.707c4.267,0.853,7.68,5.973,6.827,10.24
			C316.948,92.322,313.534,94.882,310.121,94.882z"/>
	</g>
	<path style="fill:#54C9FD;" d="M190.654,76.108h34.133v-51.2h-34.133V76.108z"/>
	<path style="fill:#33A9F8;" d="M224.788,76.108h17.067v-51.2h-17.067V76.108z"/>
	<path style="fill:#FFFFFF;" d="M190.654,76.108h17.067v-51.2h-17.067V76.108z"/>
	<g>
		<path style="fill:#54C9FD;" d="M241.854,24.908v51.2h17.067v-40.96c0-5.12-4.267-10.24-10.24-10.24
			C248.681,24.908,241.854,24.908,241.854,24.908z"/>
		<path style="fill:#54C9FD;" d="M233.321,129.868v-46.08c0-4.267-3.413-7.68-7.68-7.68h-44.373c-4.267,0-7.68,3.413-7.68,7.68
			v46.08C200.041,115.362,206.868,115.362,233.321,129.868"/>
	</g>
	<path style="fill:#33A9F8;" d="M251.241,76.108h-25.6c4.267,0,7.68,3.413,7.68,7.68v37.547c8.533,1.707,17.067,4.267,25.6,9.387
		V83.788C258.921,79.522,255.508,76.108,251.241,76.108"/>
	<path style="fill:#FFFFFF;" d="M181.268,76.108h25.6c-4.267,0-7.68,3.413-7.68,7.68v37.547c-8.533,1.707-17.067,4.267-25.6,9.387
		V83.788C173.588,79.522,177.001,76.108,181.268,76.108"/>
	<path style="fill:#54C9FD;" d="M268.308,67.575h-25.6c4.267,0,7.68,4.267,7.68,8.533v41.813c8.533,1.707,17.067,4.267,25.6,9.387
		v-51.2C275.988,71.842,272.574,67.575,268.308,67.575"/>
	<g>
		<path style="fill:#FFDD09;" d="M241.001,134.135c-30.72-20.48-45.227-20.48-75.093,0c-32.427,22.187-69.12,62.293-69.12,129.707
			v15.36c0,17.92,2.56,35.84,7.68,52.907l52.053,170.667h34.133h59.733l52.053-170.667c5.12-17.067,7.68-34.987,7.68-52.907v-15.36
			C310.121,196.428,273.428,156.322,241.001,134.135"/>
		<path style="fill:#FFDD09;" d="M96.788,289.442c0.853,14.507,3.413,29.013,7.68,43.52l52.053,170.667h59.733h59.733
			l52.053-170.667c4.267-13.653,6.827-28.16,7.68-42.667c-33.28,34.133-86.187,33.28-119.467-0.853l0,0
			C182.974,256.162,130.068,255.308,96.788,289.442"/>
	</g>
	<path style="fill:#FD9808;" d="M265.748,134.135c-17.92-11.947-38.4-16.213-58.027-14.507c9.387,1.707,19.627,5.973,32.427,14.507
		c32.427,22.187,69.12,61.44,69.12,129.707v15.36c0,17.92-2.56,35.84-7.68,52.907l-52.053,170.667h25.6l52.053-169.813
		c5.12-17.067,7.68-34.987,7.68-52.907v-15.36C334.868,196.428,299.028,156.322,265.748,134.135"/>
	<path style="fill:#FFFFFF;" d="M165.908,134.135c17.92-11.947,38.4-16.213,58.027-14.507c-9.387,1.707-19.627,5.973-32.427,14.507
		c-32.427,22.187-69.12,62.293-69.12,129.707v15.36c0,17.92,2.56,35.84,7.68,52.907l52.053,170.667h-25.6l-52.053-169.813
		c-5.12-17.067-7.68-34.987-7.68-52.907v-15.36C96.788,196.428,133.481,156.322,165.908,134.135"/>
	<path style="fill:#FFDD09;" d="M291.348,134.135c-17.92-11.947-38.4-16.213-58.027-14.507c9.387,1.707,19.627,5.973,32.427,14.507
		c32.427,22.187,69.12,61.44,69.12,129.707v15.36c0,17.92-2.56,35.84-7.68,52.907l-52.053,170.667h15.36
		c5.973,0,11.093-4.267,12.8-9.387l49.493-160.427c5.12-17.067,7.68-34.987,7.68-52.907v-15.36
		C360.468,196.428,324.628,156.322,291.348,134.135"/>
	<path d="M281.961,511.308H150.548l-53.76-175.787c-5.12-17.92-8.533-36.693-8.533-55.467v-15.36
		c0-72.533,39.253-114.347,72.533-136.533c33.28-23.04,76.8-23.04,110.933,0c33.28,22.187,72.533,64,72.533,136.533v15.36
		c0,18.773-2.56,37.547-8.533,55.467L281.961,511.308z M162.494,494.242h106.667l50.347-163.84c5.12-16.213,7.68-33.28,7.68-50.347
		v-15.36c0-64.853-35.84-102.4-64.853-122.027l0,0c-28.16-18.773-64-18.773-91.307,0c-29.867,18.773-65.707,56.32-65.707,121.173
		v15.36c0,17.067,2.56,34.133,7.68,50.347L162.494,494.242z"/>
	<path d="M241.854,84.642h-51.2c-5.12,0-8.533-3.413-8.533-8.533v-51.2c0-5.12,3.413-8.533,8.533-8.533h51.2
		c5.12,0,8.533,3.413,8.533,8.533v51.2C250.388,81.228,246.974,84.642,241.854,84.642z M199.188,67.575h34.133V33.442h-34.133
		V67.575z"/>
	<path d="M241.854,59.042h-17.067c-5.12,0-8.533-3.413-8.533-8.533s3.413-8.533,8.533-8.533h17.067c5.12,0,8.533,3.413,8.533,8.533
		S246.974,59.042,241.854,59.042z"/>
	<path d="M403.988,59.042h-8.533c-5.12,0-8.533-3.413-8.533-8.533s3.413-8.533,8.533-8.533h8.533c5.12,0,8.533,3.413,8.533,8.533
		S409.108,59.042,403.988,59.042z M369.854,59.042h-8.533c-5.12,0-8.533-3.413-8.533-8.533s3.413-8.533,8.533-8.533h8.533
		c5.12,0,8.533,3.413,8.533,8.533S374.974,59.042,369.854,59.042z M335.721,59.042h-8.533c-5.12,0-8.533-3.413-8.533-8.533
		s3.413-8.533,8.533-8.533h8.533c5.12,0,8.533,3.413,8.533,8.533S340.841,59.042,335.721,59.042z M301.588,59.042h-8.533
		c-5.12,0-8.533-3.413-8.533-8.533s3.413-8.533,8.533-8.533h8.533c5.12,0,8.533,3.413,8.533,8.533S306.708,59.042,301.588,59.042z"
		/>
	<path d="M293.054,33.442c-4.267,0-7.68-2.56-8.533-6.827s1.707-9.387,6.827-10.24l8.533-1.707c4.267-0.853,9.387,1.707,10.24,6.827
		c0.853,4.267-1.707,9.387-6.827,10.24l-8.533,1.707C293.908,33.442,293.908,33.442,293.054,33.442z M326.334,26.615
		c-4.267,0-7.68-2.56-8.533-6.827s1.707-9.387,6.827-10.24l8.533-1.707c4.267-0.853,9.387,1.707,10.24,6.827
		c0.853,4.267-1.707,9.387-6.827,10.24l-8.533,1.707C327.188,25.762,327.188,26.615,326.334,26.615z M359.614,18.935
		c-4.267,0-7.68-2.56-8.533-6.827s1.707-9.387,6.827-10.24l8.533-1.707c4.267-0.853,9.387,1.707,10.24,6.827
		c0.853,4.267-1.707,9.387-6.827,10.24l-8.533,1.707C361.321,18.935,360.468,18.935,359.614,18.935z"/>
	<path d="M368.148,101.708c-0.853,0-0.853,0-1.707,0l-8.533-1.707c-4.267-0.853-7.68-5.973-6.827-10.24
		c1.707-5.12,5.973-7.68,10.24-6.827l8.533,1.707c4.267,0.853,7.68,5.973,6.827,10.24
		C375.828,99.148,371.561,101.708,368.148,101.708z M334.868,94.028c-0.853,0-0.853,0-1.707,0l-8.533-1.707
		c-4.267-0.853-7.68-5.973-6.827-10.24c0.853-5.12,5.973-7.68,10.24-6.827l8.533,1.707c4.267,0.853,7.68,5.973,6.827,10.24
		C342.548,91.468,338.281,94.028,334.868,94.028z M301.588,86.348c-0.853,0-0.853,0-1.707,0l-8.533-1.707
		c-4.267-0.853-7.68-5.973-6.827-10.24c0.853-4.267,5.973-7.68,10.24-6.827l8.533,1.707c4.267,0.853,7.68,5.973,6.827,10.24
		C308.414,83.788,305.001,86.348,301.588,86.348z"/>
	<path d="M267.454,144.375l-12.8-6.827c-23.893-12.8-52.907-12.8-77.653,0l-11.947,6.827V83.788c0-8.533,6.827-16.213,16.213-16.213
		h70.827c8.533,0,16.213,6.827,16.213,16.213v60.587H267.454z M216.254,111.095c11.947,0,23.04,1.707,34.133,5.973V84.642h-68.267
		v32.427C193.214,112.802,204.308,111.095,216.254,111.095z"/>
	<path d="M275.988,511.308H156.521c-3.413,0-6.827-2.56-8.533-5.973l-51.2-169.813c-4.267-14.507-6.827-29.867-7.68-45.227
		c0-2.56,0.853-4.267,2.56-6.827c17.067-17.92,40.107-28.16,64.853-28.16l0,0c23.893,0,46.933,9.387,64.853,26.453
		c0.853,0,0.853,0.853,1.707,1.707c14.507,15.36,34.133,23.04,53.76,23.04l0,0c19.627,0,38.4-7.68,52.907-22.187
		c2.56-2.56,5.973-3.413,9.387-1.707c3.413,1.707,5.12,5.12,5.12,8.533c-0.853,15.36-3.413,29.867-7.68,44.373l-52.053,170.667
		C282.814,508.748,279.401,511.308,275.988,511.308z M162.494,494.242h106.667l50.347-163.84c1.707-6.827,3.413-12.8,5.12-19.627
		c-14.507,8.533-30.72,13.653-47.787,13.653l0,0c-23.893,0-46.933-9.387-64.853-26.453c-0.853,0-0.853-0.853-1.707-1.707
		c-14.507-15.36-34.133-23.04-53.76-23.04l0,0c-18.773,0-36.693,6.827-50.347,19.627c0.853,12.8,3.413,25.6,6.827,37.547
		L162.494,494.242z"/>
</g>
<g>
</g>
<g>
</g>
<g>
</g>
<g>
</g>
<g>
</g>
<g>
</g>
<g>
</g>
<g>
</g>
<g>
</g>
<g>
</g>
<g>
</g>
<g>
</g>
<g>
</g>
<g>
</g>
<g>
</g>
</svg>
